<svg id="Layer_1" enable-background="new 0 0 512 512" height="512" viewBox="0 0 512 512" width="512" xmlns="http://www.w3.org/2000/svg"><g><g><g><path d="m504.5 186.54c0 80.41-64.44 135.42-161.98 218.68-16.57 14.15-35.35 30.18-54.87 47.28-2.57 2.26-5.87 3.5-9.3 3.5s-6.73-1.24-9.3-3.5c-3.6-3.15-7.17-6.26-10.7-9.33-15.66-13.61-30.65-26.4-44.16-37.94-97.55-83.27-161.99-138.28-161.99-218.69 0-74.42 51.65-130.54 120.14-130.54 24.55 0 47.05 7.79 66.88 23.16 19.02 14.73 31.68 33.49 39.13 47.14 7.45-13.65 20.11-32.41 39.13-47.14 14.45-11.2 30.31-18.37 47.35-21.43 6.35-1.16 12.86-1.73 19.53-1.73 68.49 0 120.14 56.12 120.14 130.54z" fill="#ff6e6e"/></g></g><g><g><path d="m504.5 186.54c0 80.41-64.44 135.42-161.98 218.68-16.57 14.15-35.35 30.18-54.87 47.28-2.57 2.26-5.87 3.5-9.3 3.5s-6.73-1.24-9.3-3.5c-3.6-3.15-7.17-6.26-10.7-9.33 15.66-13.61 30.65-26.41 44.17-37.95 97.54-83.26 161.98-138.27 161.98-218.68 0-66.8-41.61-118.86-99.67-128.81 6.35-1.16 12.86-1.73 19.53-1.73 68.49 0 120.14 56.12 120.14 130.54z" fill="#f44e92"/></g></g><path d="m406.07 256c0 19.46-15.77 35.24-35.23 35.24-4.41 0-8.62-.81-12.51-2.29-13.29-5.04-22.73-17.9-22.73-32.95 0-15.06 9.45-27.91 22.74-32.95 3.89-1.47 8.1-2.28 12.5-2.28 19.46 0 35.23 15.77 35.23 35.23z" fill="#e9f5ff"/><path d="m406.07 256c0 19.46-15.77 35.24-35.23 35.24-4.41 0-8.62-.81-12.51-2.29 13.29-5.04 22.74-17.89 22.74-32.95s-9.44-27.91-22.73-32.95c3.89-1.47 8.1-2.28 12.5-2.28 19.46 0 35.23 15.77 35.23 35.23z" fill="#bde2ef"/></g><g><path d="m109.767 82.946c18.129-12.721 39.767-19.446 62.575-19.446 22.841 0 43.797 7.263 62.286 21.586 18.148 14.061 30.214 32.126 37.14 44.806 1.315 2.407 3.839 3.905 6.582 3.905s5.267-1.498 6.582-3.905c6.927-12.68 18.993-30.747 37.14-44.806 18.488-14.323 39.444-21.586 62.285-21.586 46.111 0 85.651 27.523 103.188 71.83 1.166 2.946 3.989 4.742 6.976 4.742.918 0 1.853-.17 2.758-.528 3.852-1.524 5.738-5.882 4.213-9.734-19.851-50.154-64.735-81.31-117.135-81.31-26.246 0-50.293 8.32-71.473 24.729-15.282 11.839-26.624 26.113-34.535 38.396-7.911-12.282-19.252-26.555-34.535-38.396-21.179-16.409-45.226-24.729-71.472-24.729-25.907 0-50.525 7.666-71.191 22.168-3.391 2.379-4.21 7.057-1.831 10.447 2.379 3.392 7.057 4.212 10.447 1.831z"/><path d="m510.858 167.178c-.492-4.113-4.221-7.05-8.337-6.557-4.113.492-7.048 4.224-6.557 8.337.687 5.747 1.035 11.664 1.035 17.585 0 62.931-40.268 109.583-119.575 178.786-3.121 2.723-3.443 7.461-.72 10.582 1.483 1.7 3.563 2.569 5.654 2.569 1.75 0 3.507-.608 4.928-1.849 33.361-29.111 67.391-60.424 90.295-92.151 23.483-32.523 34.419-63.644 34.419-97.937 0-6.515-.384-13.03-1.142-19.365z"/><path d="m134.999 259.693 17.481-30.895 41.489 73.326c1.331 2.353 3.825 3.807 6.527 3.807s5.197-1.454 6.527-3.807l48.748-86.154 24.74 43.723c1.331 2.353 3.825 3.807 6.527 3.807h41.734c3.557 19.998 21.058 35.235 42.062 35.235 4.142 0 7.5-3.358 7.5-7.5s-3.358-7.5-7.5-7.5c-15.293 0-27.735-12.442-27.735-27.735s12.442-27.735 27.735-27.735 27.735 12.442 27.735 27.735c0 4.812-1.25 9.549-3.613 13.7-2.049 3.599-.793 8.179 2.807 10.229 3.599 2.05 8.179.794 10.229-2.807 3.649-6.408 5.578-13.712 5.578-21.122 0-23.564-19.171-42.735-42.735-42.735-21.004 0-38.505 15.237-42.062 35.235h-37.36l-29.113-51.453c-1.331-2.353-3.825-3.807-6.527-3.807s-5.197 1.454-6.527 3.807l-48.748 86.154-41.489-73.325c-1.331-2.353-3.825-3.807-6.527-3.807s-5.196 1.454-6.527 3.807l-21.857 38.624h-49.376c-9.764-19.567-15.023-39.816-15.023-61.957 0-30.173 8.776-57.727 25.378-79.681 2.499-3.304 1.846-8.007-1.458-10.506-3.305-2.5-8.008-1.845-10.506 1.458-18.589 24.581-28.415 55.263-28.415 88.729 0 22.27 4.618 42.568 13.259 61.957h-50.457c-4.142 0-7.5 3.358-7.5 7.5s3.358 7.5 7.5 7.5h58.038c26.798 47.56 77.85 91.153 143.813 147.464 16.54 14.121 35.286 30.125 54.749 47.175 3.94 3.458 9.001 5.361 14.25 5.361 5.248 0 10.308-1.903 14.247-5.357 18.535-16.238 47.371-40.903 67.448-58.043 3.15-2.689 3.524-7.423.834-10.574-2.689-3.15-7.423-3.524-10.574-.834-20.108 17.167-48.993 41.874-67.596 58.171-1.204 1.056-2.752 1.637-4.359 1.637s-3.154-.581-4.362-1.641c-19.539-17.116-38.324-33.154-54.931-47.332-61.239-52.278-109.211-93.235-135.913-136.027h45.327c2.703 0 5.197-1.454 6.528-3.807z"/></g></svg>