<svg id="Capa_1" enable-background="new 0 0 511.932 511.932" height="512" viewBox="0 0 511.932 511.932" width="512" xmlns="http://www.w3.org/2000/svg"><g><g><g><path d="m396.298 203.923h-2.57v-80.255h-271.564v80.255h-6.53c-15.515 0-28.093 12.577-28.093 28.09 0 15.514 12.578 28.09 28.093 28.09h6.53v.876c0 60.537 49.079 109.612 109.622 109.612h52.32c60.543 0 109.622-49.075 109.622-109.612v-.876h2.57c15.515 0 28.093-12.576 28.093-28.09 0-15.513-12.578-28.09-28.093-28.09z" fill="#ffd0c7"/></g><g><path d="m210.675 501.932h-151.078v-40.538c0-29.063 23.562-52.623 52.628-52.623h287.483c29.066 0 52.628 23.56 52.628 52.623v40.538h-151.078" fill="#ff7b79"/></g><path d="m412.652 107.063c-.285-.884-.58-1.763-.885-2.636-14.239-40.758-53.787-67.177-96.945-66.006-86.236-72.788-133.472 16.39-133.906 20.486-8.222-1.185-16.615-1.006-24.838.557-27.175 5.166-49.338 24.793-57.746 51.142l-.444 1.385c-5.14 16.107-4.722 23.453 1.195 39.289l23.38 50.685c2.266-1.53 7.827-1.993 18.862-4.482 29.375-6.627 12.183-46.792 29.089-70.805 5.204 8.728 45.442 26.745 78.664 40.468 17.471 7.217 35.2-9.751 28.779-27.53l-3.102-8.589c-1.888-2.691 72.225 62.053 119.273 63.612l4.41-5.791c17.119-22.483 23.064-51.792 15.102-78.905-.285-.964-.58-1.924-.888-2.88z" fill="#ffda8f"/><path d="m225.575 375.247v33.524h60.783v-33.501" fill="#ffd0c7"/><g><path d="m358.976 346.231-26.083 11.869c-48.71 22.164-104.616 22.221-153.37.155l-26.567-12.024v-61.033l26.326-11.947c48.732-22.115 104.638-22.115 153.37 0l26.326 11.947v61.033z" fill="#faf7f5"/></g></g><g><g><path d="m321.074 247.909c-2.559 0-5.118-.977-7.07-2.929l-16.272-16.271c-3.906-3.905-3.906-10.236-.001-14.142 3.904-3.906 10.237-3.907 14.142-.001l9.202 9.2 9.202-9.2c3.906-3.904 10.239-3.904 14.142.001 3.905 3.905 3.905 10.236-.001 14.142l-16.272 16.271c-1.953 1.952-4.513 2.929-7.072 2.929z"/></g><g><path d="m190.858 247.909c-2.559 0-5.118-.977-7.07-2.929l-16.273-16.271c-3.906-3.905-3.906-10.236-.001-14.142 3.904-3.906 10.237-3.907 14.142-.001l9.202 9.2 9.202-9.2c3.905-3.904 10.238-3.904 14.142.001 3.905 3.905 3.905 10.236-.001 14.142l-16.272 16.271c-1.953 1.952-4.513 2.929-7.071 2.929z"/></g><path d="m399.707 398.771h-103.35v-18.208c13.887-2.926 27.531-7.38 40.677-13.362l26.084-11.869c3.568-1.623 5.858-5.182 5.858-9.102v-.957c20.445-20.548 32.486-47.12 34.462-75.841 17.604-3.352 30.952-18.856 30.952-37.419 0-17.596-11.994-32.443-28.236-36.798l.238-.313c19.213-25.232 25.472-58.047 16.738-87.787-.308-1.045-.628-2.087-.963-3.125-.309-.958-.629-1.91-.961-2.863-7.674-21.966-22.012-40.538-41.462-53.709-18.233-12.347-39.373-18.892-61.366-19.035-41.885-33.988-75.252-31.389-96.04-23.033-17.402 6.994-30.007 19.438-37.517 28.646-3.487 4.275-7.186 9.547-9.888 14.272-6.929-.389-13.872.068-20.724 1.371-30.81 5.857-55.873 28.053-65.4 57.91l-.449 1.4c-5.703 17.869-5.412 27.721 1.354 45.83.087.233.183.463.287.688l18.085 39.206c-17.402 3.511-30.546 18.919-30.546 37.34 0 19.948 15.413 36.363 34.957 37.962 1.969 26.439 12.593 51.33 30.457 71.116v5.139c0 3.928 2.299 7.491 5.877 9.11l26.567 12.024c12.992 5.88 26.465 10.27 40.175 13.169v18.236h-103.35c-34.533 0-62.628 28.093-62.628 62.623v40.538c0 5.522 4.478 10 10 10h151.078c5.522 0 10-4.478 10-10s-4.478-10-10-10h-141.076v-30.538c0-23.502 19.123-42.623 42.628-42.623h287.482c23.505 0 42.628 19.121 42.628 42.623v30.538h-141.077c-5.522 0-10 4.478-10 10s4.478 10 10 10h151.077c5.522 0 10-4.478 10-10v-40.538c0-34.528-28.095-62.621-62.628-62.621zm-238.38-128.354-26.464-61.37c2.415-.472 5.284-1.048 8.663-1.81 24.234-5.468 26.12-27.259 27.635-44.769.584-6.759 1.181-13.659 2.858-19.792 10.559 6.687 30.872 17.035 71.241 33.71 11.79 4.872 24.846 2.418 34.067-6.396 4.702-4.494 7.798-10.057 9.131-16.021 37.696 27.897 68.913 44.386 93.144 49.206l-29.324 68.001-15.494-7.031c-51.362-23.309-110.275-23.308-161.634 0zm253.064-38.403c0 9.975-8.116 18.09-18.093 18.09h-2.569c-5.522 0-10 4.478-10 10v.877c0 18.814-5.133 36.741-14.752 52.27v-28.053c0-.625-.059-1.241-.171-1.842l29.874-69.276c8.855 1.169 15.711 8.766 15.711 17.934zm-306.983-116.969.449-1.4c7.3-22.875 26.492-39.872 50.088-44.357 7.12-1.355 14.368-1.517 21.544-.483 2.684.384 5.42-.337 7.566-2.005 1.735-1.35 2.966-3.224 3.524-5.321 2.259-5.475 18.512-32.692 46.046-39.822 21.751-5.633 45.887 2.58 71.746 24.406 1.876 1.583 4.257 2.436 6.722 2.354 39.438-1.026 74.466 22.766 87.231 59.302.279.801.549 1.605.81 2.415v.001c.282.874.552 1.752.809 2.624 6.946 23.656 1.914 49.836-13.463 70.03l-1.091 1.432c-17.82-2.367-49.585-15.011-104.186-57.892-1.398-1.098-2.495-1.958-3.251-2.534-7.311-5.572-12.648-1.49-14.108-.106-2.99 2.832-3.858 7.183-2.436 10.901l3.043 8.422c2.418 6.696-1.641 11.276-2.942 12.52-1.3 1.241-6.05 5.077-12.614 2.37-63.954-26.418-73.011-35.346-74.001-36.525-1.754-2.806-4.786-4.566-8.101-4.692-3.385-.119-6.605 1.467-8.556 4.236-8.616 12.238-9.884 26.893-11.002 39.824-1.684 19.463-3.381 25.013-12.111 26.982-3.84.866-7.047 1.489-9.625 1.989-.529.102-1.042.202-1.535.299l-19.643-42.581c-5.142-13.838-5.259-18.768-.913-32.389zm24.756 145.936v-.877c0-5.523-4.478-10-10-10h-6.53c-9.977 0-18.093-8.115-18.093-18.09 0-9.826 7.875-17.847 17.646-18.085l28.813 66.817c-.675 1.357-1.046 2.875-1.046 4.452v20.935c-7.05-13.846-10.79-29.256-10.79-45.152zm30.791 78.8v-48.14l20.459-9.283c46.107-20.926 98.995-20.926 145.105 0l20.458 9.283v48.153l-20.226 9.204c-46.088 20.971-98.977 21.023-145.105.146zm72.619 43.911c6.801.715 13.632 1.073 20.462 1.073 6.783 0 13.566-.353 20.321-1.059v15.065h-40.783z"/><g><path d="m256.146 511.932c-4.235 0-8.078-2.764-9.453-6.763-1.356-3.944-.043-8.478 3.238-11.067 3.242-2.557 7.809-2.846 11.354-.739 3.585 2.13 5.493 6.429 4.672 10.519-.927 4.616-5.099 8.05-9.811 8.05z"/></g></g></g></svg>