<?xml version="1.0" encoding="iso-8859-1"?>
<!-- Generator: Adobe Illustrator 19.0.0, SVG Export Plug-In . SVG Version: 6.00 Build 0)  -->
<svg version="1.1" id="Capa_1" xmlns="http://www.w3.org/2000/svg" xmlns:xlink="http://www.w3.org/1999/xlink" x="0px" y="0px"
	 viewBox="0 0 511.999 511.999" style="enable-background:new 0 0 511.999 511.999;" xml:space="preserve">
<path style="fill:#686D6D;" d="M462.269,504.484H49.731c-2.767,0-5.011-2.243-5.011-5.011v-31.709c0-2.767,2.243-5.011,5.011-5.011
	h412.537c2.767,0,5.011,2.243,5.011,5.011v31.709C467.279,502.241,465.036,504.484,462.269,504.484z"/>
<path style="fill:#555656;" d="M462.269,504.484h-74.237v-41.469h74.237c2.767,0,5.011,2.243,5.011,5.011v31.447
	C467.279,502.241,465.036,504.484,462.269,504.484z"/>
<path style="fill:#D7DCDD;" d="M433.883,463.015H78.117V185.399C78.117,87.157,157.758,7.517,256,7.517l0,0
	c98.242,0,177.883,79.641,177.883,177.883V463.015z"/>
<path style="fill:#BDBDBD;" d="M433.88,185.402v277.613h-45.848V185.402c0-49.125-19.913-93.6-52.101-125.789
	c-27.098-27.098-62.904-45.497-102.86-50.638c7.506-0.962,15.162-1.463,22.929-1.463c49.125,0,93.59,19.913,125.779,52.101
	S433.88,136.277,433.88,185.402z"/>
<path style="fill:#686D6D;" d="M299.829,120.229h-25.791V81.674c0-2.767-2.243-5.011-5.011-5.011h-26.054
	c-2.767,0-5.011,2.243-5.011,5.011v38.555h-25.791c-2.767,0-5.011,2.243-5.011,5.011v26.054c0,2.767,2.243,5.011,5.011,5.011h25.791
	v68.242c0,2.767,2.243,5.011,5.011,5.011h26.054c2.767,0,5.011-2.243,5.011-5.011v-68.242h25.791c2.767,0,5.011-2.243,5.011-5.011
	V125.24C304.839,122.472,302.596,120.229,299.829,120.229z"/>
<path d="M462.269,455.238h-20.87v-35.435c0-4.151-3.365-7.516-7.516-7.516s-7.516,3.365-7.516,7.516v35.435H85.633V185.399
	c0-10.394,0.943-20.801,2.8-30.933c0.21-1.149,0.433-2.295,0.666-3.437c0.832-4.066-1.79-8.038-5.857-8.87
	c-4.062-0.829-8.038,1.791-8.869,5.857c-0.255,1.24-0.495,2.486-0.725,3.737c-2.022,11.025-3.047,22.345-3.047,33.645v269.839
	h-20.87c-6.907,0-12.527,5.619-12.527,12.527v31.708c0,6.907,5.62,12.527,12.527,12.527h412.538c6.907,0,12.527-5.619,12.527-12.527
	v-31.708C474.796,460.858,469.176,455.238,462.269,455.238z M459.763,496.968H52.237V470.27h407.527v26.698H459.763z"/>
<path d="M95.999,107.214c3.649,1.979,8.211,0.629,10.193-3.017C136.068,49.198,193.471,15.032,256,15.032
	c93.941,0,170.367,76.426,170.367,170.367v181.04c0,4.151,3.365,7.516,7.516,7.516s7.516-3.365,7.516-7.516v-181.04
	C441.398,83.17,358.229,0,256,0C187.956,0,125.492,37.176,92.982,97.022C91.001,100.669,92.352,105.233,95.999,107.214z"/>
<path d="M138.004,289.486c0,4.151,3.365,7.516,7.516,7.516h220.96c4.151,0,7.516-3.365,7.516-7.516s-3.365-7.516-7.516-7.516H145.52
	C141.368,281.97,138.004,285.334,138.004,289.486z"/>
<path d="M145.52,340.593h220.96c4.151,0,7.516-3.365,7.516-7.516s-3.365-7.516-7.516-7.516H145.52c-4.151,0-7.516,3.365-7.516,7.516
	S141.368,340.593,145.52,340.593z"/>
<path d="M145.52,384.184h220.96c4.151,0,7.516-3.365,7.516-7.516s-3.365-7.516-7.516-7.516H145.52c-4.151,0-7.516,3.365-7.516,7.516
	S141.368,384.184,145.52,384.184z"/>
<path d="M269.027,69.147h-26.054c-6.907,0-12.527,5.619-12.527,12.527v31.039h-18.275c-6.907,0-12.527,5.619-12.527,12.527v26.054
	c0,6.907,5.619,12.527,12.527,12.527h18.275v60.726c0,6.907,5.619,12.527,12.527,12.527h26.054c6.907,0,12.527-5.619,12.527-12.527
	V163.82h18.275c6.907,0,12.527-5.619,12.527-12.527v-26.054c0-6.907-5.619-12.527-12.527-12.527h-18.275V81.673
	C281.553,74.766,275.934,69.147,269.027,69.147z M297.324,148.788h-23.286c-4.151,0-7.516,3.365-7.516,7.516l0,0l0,0v65.736h-21.043
	v-65.737c0-4.151-3.365-7.516-7.516-7.516h-23.286v-21.043h23.286c4.151,0,7.516-3.365,7.516-7.516v-36.05h21.043v36.05
	c0,4.151,3.365,7.516,7.516,7.516h23.286V148.788z"/>
<g>
</g>
<g>
</g>
<g>
</g>
<g>
</g>
<g>
</g>
<g>
</g>
<g>
</g>
<g>
</g>
<g>
</g>
<g>
</g>
<g>
</g>
<g>
</g>
<g>
</g>
<g>
</g>
<g>
</g>
</svg>
